<svg width="16" height="14" viewBox="0 0 16 14" fill="none" xmlns="http://www.w3.org/2000/svg">
<path d="M10.9133 13.4296C10.9267 13.4263 10.9394 13.4219 10.9527 13.4181C19.104 10.7432 16.8491 0.658936 8.00783 0.658936C3.57082 0.658936 0 3.6463 0 7.27303C0 11.8627 5.62817 15.1377 10.9133 13.4296ZM3.52411 11.7149C4.09267 10.9257 5.93247 8.69892 9.07287 7.93058C9.72951 9.31348 10.19 10.9268 10.2353 12.7561C7.85568 13.417 5.34589 12.9722 3.52411 11.7149ZM11.2196 12.4111C11.1322 10.6534 10.6978 9.09466 10.0785 7.74428C11.4679 7.56515 13.0761 7.68476 14.8999 8.28829C14.5122 10.0857 13.1208 11.5964 11.2196 12.4111ZM15.0047 7.43342C12.996 6.81004 11.2256 6.73233 9.69348 6.97374C9.45658 6.5328 9.20767 6.10895 8.94408 5.71872C11.295 4.94321 12.6844 3.99795 13.3063 3.49748C14.4041 4.54692 15.0561 5.90556 15.0047 7.43342ZM12.5956 2.90883C12.0298 3.35363 10.6971 4.25204 8.41823 4.98676C7.30114 3.52725 6.10664 2.49765 5.3499 1.92112C7.77093 1.09767 10.563 1.44932 12.5956 2.90883ZM4.39296 2.32514C4.96419 2.74017 6.21808 3.73669 7.42793 5.27778C5.7663 5.71982 3.68293 6.04446 1.14912 6.09021C1.55218 4.49511 2.75603 3.14363 4.39296 2.32514ZM1.02233 6.92028C3.85844 6.88224 6.15402 6.51241 7.96846 6.01194C8.21937 6.37516 8.4576 6.77091 8.68649 7.18208C5.52674 8.01326 3.55214 10.159 2.79607 11.1279C1.57621 10.0035 0.90355 8.53632 1.02233 6.92028Z" fill="#211105"/>
</svg>
