<svg width="20" height="18" viewBox="0 0 20 18" fill="none" xmlns="http://www.w3.org/2000/svg">
<path d="M7.54548 16.1102C7.99735 16.1102 8.36366 15.8073 8.36366 15.4336C8.36366 15.06 7.99735 14.7571 7.54548 14.7571C7.09361 14.7571 6.72729 15.06 6.72729 15.4336C6.72729 15.8073 7.09361 16.1102 7.54548 16.1102Z" stroke="black" stroke-width="2" stroke-linecap="round" stroke-linejoin="round"/>
<path d="M16.5455 16.1102C16.9973 16.1102 17.3637 15.8073 17.3637 15.4336C17.3637 15.06 16.9973 14.7571 16.5455 14.7571C16.0936 14.7571 15.7273 15.06 15.7273 15.4336C15.7273 15.8073 16.0936 16.1102 16.5455 16.1102Z" stroke="black" stroke-width="2" stroke-linecap="round" stroke-linejoin="round"/>
<path d="M1 1.90259H4.27273L6.46545 10.9616C6.54027 11.2731 6.7452 11.5529 7.04436 11.752C7.34351 11.9511 7.71784 12.0569 8.10182 12.0508H16.0545C16.4385 12.0569 16.8129 11.9511 17.112 11.752C17.4112 11.5529 17.6161 11.2731 17.6909 10.9616L19 5.28533H8.5" stroke="black" stroke-width="2" stroke-linecap="round" stroke-linejoin="round"/>
</svg>
