<svg width="15" height="11" viewBox="0 0 15 11" fill="none" xmlns="http://www.w3.org/2000/svg">
<path d="M14.7692 1.48744C14.22 1.68666 13.6348 1.81871 13.0246 1.88282C13.6523 1.57293 14.1314 1.08595 14.3566 0.498986C13.7714 0.787508 13.1252 0.991306 12.4366 1.10504C11.8809 0.615769 11.0889 0.312744 10.2249 0.312744C8.54862 0.312744 7.19908 1.43783 7.19908 2.81709C7.19908 3.01554 7.21938 3.20636 7.26923 3.38803C4.752 3.28651 2.52462 2.28889 1.02831 0.769189C0.767077 1.14396 0.613846 1.57293 0.613846 2.03472C0.613846 2.90181 1.15385 3.67044 1.95877 4.11544C1.47231 4.1078 0.995077 3.99102 0.590769 3.80707C0.590769 3.8147 0.590769 3.82463 0.590769 3.83455C0.590769 5.05123 1.64031 6.06182 3.01662 6.29462C2.77015 6.35034 2.50154 6.37705 2.22277 6.37705C2.02892 6.37705 1.83323 6.3679 1.64954 6.33431C2.04185 7.32582 3.15508 8.05476 4.47877 8.07842C3.44862 8.74477 2.14062 9.14626 0.724615 9.14626C0.476308 9.14626 0.238154 9.1371 0 9.11191C1.34123 9.82711 2.93077 10.2355 4.64492 10.2355C10.2166 10.2355 13.2628 6.41904 13.2628 3.11095C13.2628 3.00028 13.2582 2.89342 13.2517 2.78732C13.8526 2.43468 14.3575 1.99426 14.7692 1.48744Z" fill="#211105"/>
</svg>
